<svg width="19" height="19" viewBox="0 0 19 19" fill="none" xmlns="http://www.w3.org/2000/svg">
<g clip-path="url(#clip0)">
<path fill-rule="evenodd" clip-rule="evenodd" d="M9.97744 0.940643C14.6297 0.940643 18.3937 4.70467 18.3937 9.34988C18.3937 13.995 14.6297 17.7661 9.97744 17.7661C5.32518 17.7661 1.56116 14.0021 1.56116 9.35686C1.56116 4.71172 5.32518 0.940643 9.97744 0.940643Z" fill="white"/>
<path fill-rule="evenodd" clip-rule="evenodd" d="M9.97744 18.3662C5.00094 18.3662 0.954884 14.3272 0.954884 9.35775C0.954884 4.38138 5.00094 0.342377 9.97744 0.342377C14.9539 0.342377 19 4.38138 19 9.35077C19 14.3202 14.9539 18.3662 9.97744 18.3662ZM17.5831 10.5843C17.3224 10.4997 15.2007 9.87238 12.7828 10.253C13.7909 13.0161 14.1996 15.2718 14.2773 15.7369C16.0113 14.5739 17.2448 12.7272 17.5831 10.5843ZM12.9873 16.4489C12.8745 15.7722 12.4233 13.4179 11.3449 10.6125C11.3308 10.6196 11.3097 10.6265 11.2956 10.6265C6.94642 12.1421 5.38862 15.1519 5.24772 15.4339C6.55169 16.4489 8.19408 17.0551 9.97744 17.0551C11.0418 17.0622 12.0638 16.8437 12.9873 16.4489ZM4.25383 14.5105C4.42998 14.2144 6.54464 10.7182 10.5202 9.4283C10.6189 9.39306 10.7246 9.36487 10.8233 9.3366C10.633 8.89964 10.4215 8.46261 10.196 8.03263C6.34734 9.18159 2.61137 9.13225 2.27302 9.12513C2.27302 9.20274 2.26604 9.28028 2.26604 9.35775C2.27302 11.3385 3.02027 13.143 4.25383 14.5105ZM2.43522 7.78592C2.78054 7.79297 5.95253 7.80706 9.56156 6.84842C8.28571 4.57875 6.90413 2.67548 6.70683 2.40065C4.54276 3.41569 2.93569 5.4034 2.43522 7.78592ZM8.17293 1.87896C8.38439 2.16099 9.78712 4.06418 11.0489 6.38319C13.7909 5.35413 14.9469 3.8033 15.0878 3.60594C13.7274 2.40065 11.937 1.66749 9.97744 1.66749C9.35714 1.66749 8.75094 1.7451 8.17293 1.87896ZM15.9407 4.49416C15.7787 4.71261 14.4887 6.36909 11.6409 7.53216C11.8172 7.89877 11.9934 8.27229 12.1555 8.64588C12.2119 8.77981 12.2683 8.91367 12.3247 9.04055C14.8905 8.71637 17.4351 9.23799 17.6888 9.28733C17.6677 7.47584 17.0192 5.80518 15.9407 4.49416Z" fill="black"/>
</g>
<defs>
<clipPath id="clip0">
<rect width="18.0451" height="18.0451" fill="white" transform="translate(0.954887 0.330841)"/>
</clipPath>
</defs>
</svg>
