<svg width="10" height="10" viewBox="0 0 10 10" fill="none" xmlns="http://www.w3.org/2000/svg">
<path d="M8.34089 4.59612C8.23922 4.59612 8.14172 4.6365 8.06983 4.70839C7.99794 4.78027 7.95755 4.87777 7.95755 4.97943V7.27927C7.95755 7.38093 7.91717 7.47842 7.84528 7.55031C7.77339 7.62219 7.67588 7.66257 7.57422 7.66257H2.97422C2.87255 7.66257 2.77505 7.62219 2.70316 7.55031C2.63127 7.47842 2.59089 7.38093 2.59089 7.27927V2.67958C2.59089 2.57792 2.63127 2.48043 2.70316 2.40855C2.77505 2.33666 2.87255 2.29628 2.97422 2.29628H5.27422C5.37589 2.29628 5.47339 2.25589 5.54528 2.18401C5.61717 2.11212 5.65755 2.01463 5.65755 1.91297C5.65755 1.81131 5.61717 1.71382 5.54528 1.64193C5.47339 1.57005 5.37589 1.52966 5.27422 1.52966H2.97422C2.66922 1.52966 2.37671 1.65082 2.16105 1.86647C1.94538 2.08212 1.82422 2.37461 1.82422 2.67958V7.27927C1.82422 7.58425 1.94538 7.87673 2.16105 8.09238C2.37671 8.30804 2.66922 8.42919 2.97422 8.42919H7.57422C7.87922 8.42919 8.17172 8.30804 8.38739 8.09238C8.60306 7.87673 8.72422 7.58425 8.72422 7.27927V4.97943C8.72422 4.87777 8.68383 4.78027 8.61194 4.70839C8.54005 4.6365 8.44255 4.59612 8.34089 4.59612Z" fill="white"/>
<path d="M6.80756 2.29628H7.41323L5.00206 4.70344C4.96613 4.73908 4.93761 4.78147 4.91815 4.82818C4.89869 4.87489 4.88867 4.92499 4.88867 4.97559C4.88867 5.02619 4.89869 5.07629 4.91815 5.123C4.93761 5.16971 4.96613 5.21211 5.00206 5.24774C5.0377 5.28367 5.08009 5.31218 5.12681 5.33164C5.17352 5.3511 5.22362 5.36112 5.27423 5.36112C5.32483 5.36112 5.37494 5.3511 5.42165 5.33164C5.46836 5.31218 5.51076 5.28367 5.54639 5.24774L7.95756 2.84057V3.4462C7.95756 3.54786 7.99795 3.64535 8.06984 3.71724C8.14173 3.78912 8.23923 3.8295 8.34089 3.8295C8.44256 3.8295 8.54006 3.78912 8.61195 3.71724C8.68384 3.64535 8.72423 3.54786 8.72423 3.4462V1.91297C8.72423 1.81131 8.68384 1.71382 8.61195 1.64193C8.54006 1.57005 8.44256 1.52966 8.34089 1.52966H6.80756C6.70589 1.52966 6.60839 1.57005 6.5365 1.64193C6.46461 1.71382 6.42423 1.81131 6.42423 1.91297C6.42423 2.01463 6.46461 2.11212 6.5365 2.18401C6.60839 2.25589 6.70589 2.29628 6.80756 2.29628V2.29628Z" fill="white"/>
</svg>
