<svg width="27" height="27" viewBox="0 0 27 27" fill="none" xmlns="http://www.w3.org/2000/svg">
<path fill-rule="evenodd" clip-rule="evenodd" d="M11.3171 21.1504C11.3171 20.9502 11.3101 20.4206 11.306 19.7171C9.02029 20.2261 8.53802 18.5874 8.53802 18.5874C8.16422 17.614 7.62545 17.3548 7.62545 17.3548C6.87935 16.8319 7.68195 16.8428 7.68195 16.8428C8.50675 16.9022 8.94059 17.7112 8.94059 17.7112C9.67357 18.9986 10.8636 18.6273 11.3323 18.4116C11.4069 17.8669 11.6193 17.4955 11.8539 17.285C10.0292 17.0724 8.11074 16.3493 8.11074 13.1207C8.11074 12.201 8.43108 11.4489 8.95673 10.8598C8.87248 10.6467 8.58998 9.79011 9.03744 8.62992C9.03744 8.62992 9.72755 8.40337 11.2969 9.49372C11.9522 9.307 12.6555 9.21286 13.3546 9.20976C14.0523 9.21286 14.755 9.307 15.4119 9.49372C16.9802 8.40337 17.6693 8.62992 17.6693 8.62992C18.1178 9.78959 17.8358 10.6461 17.7511 10.8598C18.2777 11.4489 18.5955 12.201 18.5955 13.1207C18.5955 16.3576 16.674 17.0698 14.8433 17.2783C15.1389 17.5385 15.4013 18.0526 15.4013 18.8388C15.4013 19.9654 15.3907 20.8742 15.3907 21.1504C15.3907 21.3759 15.539 21.6376 15.9562 21.5554C19.2185 20.4392 21.5709 17.2829 21.5709 13.5619C21.5709 8.9082 17.8913 5.13593 13.3531 5.13593C8.81548 5.13593 5.13592 8.9082 5.13592 13.5619C5.13642 17.284 7.49076 20.4423 10.7562 21.5564C11.1668 21.6335 11.3171 21.3733 11.3171 21.1504Z" fill="white"/>
</svg>
