<svg width="19" height="19" viewBox="0 0 19 19" fill="none" xmlns="http://www.w3.org/2000/svg">
<g clip-path="url(#clip0)">
<path d="M18.3494 3.75773C17.6857 4.05266 16.9729 4.25172 16.2235 4.34025C16.9876 3.88236 17.5746 3.15717 17.8515 2.29326C17.1359 2.71676 16.3442 3.02578 15.5011 3.191C14.8256 2.47202 13.8635 2.02258 12.7983 2.02258C10.7541 2.02258 9.09793 3.67935 9.09793 5.72352C9.09793 6.01337 9.13007 6.29646 9.19323 6.56713C6.1171 6.41262 3.39004 4.93912 1.5641 2.69984C1.24605 3.24683 1.06334 3.88236 1.06334 4.56074C1.06334 5.84533 1.71691 6.97766 2.7094 7.64194C2.10319 7.62221 1.53252 7.45642 1.03346 7.17897C1.03289 7.1942 1.03289 7.21055 1.03289 7.22521C1.03289 9.01901 2.30846 10.5151 4.00188 10.8551C3.69173 10.9391 3.36466 10.9848 3.02688 10.9848C2.78778 10.9848 2.55658 10.9617 2.33101 10.9188C2.80131 12.3884 4.16879 13.4587 5.78778 13.4891C4.5218 14.4816 2.92594 15.0743 1.19191 15.0743C0.893043 15.0743 0.598118 15.0568 0.308832 15.0224C1.94643 16.0713 3.89191 16.6842 5.98233 16.6842C12.7898 16.6842 16.5133 11.0446 16.5133 6.15322C16.5133 5.99307 16.5088 5.83292 16.5021 5.6739C17.2256 5.15228 17.8526 4.50097 18.3494 3.75773Z" fill="white"/>
</g>
<defs>
<clipPath id="clip0">
<rect width="18.0451" height="18.0451" fill="white" transform="translate(0.30827 0.330841)"/>
</clipPath>
</defs>
</svg>
